<svg data-v-423bf9ae="" xmlns="http://www.w3.org/2000/svg" viewBox="0 0 552 90" class="iconLeft"><!----><!----><!----><g data-v-423bf9ae="" id="9be15cb3-c814-41a0-8d4d-d3bcce3a3fe3" fill="white" transform="matrix(5.4584221839904785,0,0,5.4584221839904785,180.68580627441406,7.3667378425598145)"><path d="M12.42 1.40L12.42 1.40Q12.70 1.40 12.84 1.57L12.84 1.57L12.84 1.57Q12.98 1.74 12.98 2.02L12.98 2.02L12.98 2.02Q12.98 2.23 12.92 2.41L12.92 2.41L10.11 11.75L10.11 11.75Q10.01 12.01 9.82 12.17L9.82 12.17L9.82 12.17Q9.63 12.33 9.38 12.33L9.38 12.33L9.38 12.33Q9.13 12.33 8.93 12.17L8.93 12.17L8.93 12.17Q8.74 12.01 8.65 11.76L8.65 11.76L6.57 3.70L4.45 11.75L4.45 11.75Q4.35 12.01 4.17 12.17L4.17 12.17L4.17 12.17Q3.98 12.33 3.72 12.33L3.72 12.33L3.72 12.33Q3.47 12.33 3.28 12.18L3.28 12.18L3.28 12.18Q3.08 12.03 3.00 11.76L3.00 11.76L0.18 2.41L0.18 2.41Q0.13 2.23 0.13 2.03L0.13 2.03L0.13 2.03Q0.13 1.74 0.29 1.57L0.29 1.57L0.29 1.57Q0.45 1.40 0.73 1.40L0.73 1.40L0.73 1.40Q0.98 1.40 1.17 1.54L1.17 1.54L1.17 1.54Q1.36 1.68 1.44 1.95L1.44 1.95L3.74 9.93L5.85 2.03L5.85 2.03Q5.91 1.82 6.10 1.68L6.10 1.68L6.10 1.68Q6.30 1.54 6.55 1.54L6.55 1.54L6.55 1.54Q6.79 1.54 6.99 1.67L6.99 1.67L6.99 1.67Q7.18 1.79 7.24 2.02L7.24 2.02L9.38 9.98L11.70 1.88L11.70 1.88Q11.77 1.62 11.95 1.51L11.95 1.51L11.95 1.51Q12.12 1.40 12.42 1.40L12.42 1.40ZM21.27 8.39L21.27 8.39Q21.27 8.65 21.08 8.83L21.08 8.83L21.08 8.83Q20.90 9.00 20.62 9.00L20.62 9.00L15.30 9.00L15.30 9.00Q15.46 9.98 16.19 10.58L16.19 10.58L16.19 10.58Q16.93 11.19 17.99 11.19L17.99 11.19L17.99 11.19Q18.41 11.19 18.87 11.03L18.87 11.03L18.87 11.03Q19.32 10.88 19.61 10.65L19.61 10.65L19.61 10.65Q19.81 10.50 20.08 10.50L20.08 10.50L20.08 10.50Q20.34 10.50 20.50 10.64L20.50 10.64L20.50 10.64Q20.75 10.85 20.75 11.12L20.75 11.12L20.75 11.12Q20.75 11.37 20.52 11.54L20.52 11.54L20.52 11.54Q20.05 11.91 19.34 12.15L19.34 12.15L19.34 12.15Q18.63 12.39 17.99 12.39L17.99 12.39L17.99 12.39Q16.84 12.39 15.93 11.89L15.93 11.89L15.93 11.89Q15.02 11.40 14.51 10.51L14.51 10.51L14.51 10.51Q14 9.63 14 8.51L14 8.51L14 8.51Q14 7.39 14.48 6.50L14.48 6.50L14.48 6.50Q14.97 5.61 15.83 5.12L15.83 5.12L15.83 5.12Q16.69 4.62 17.78 4.62L17.78 4.62L17.78 4.62Q18.86 4.62 19.64 5.10L19.64 5.10L19.64 5.10Q20.43 5.57 20.85 6.43L20.85 6.43L20.85 6.43Q21.27 7.28 21.27 8.39L21.27 8.39ZM17.78 5.82L17.78 5.82Q16.76 5.82 16.12 6.38L16.12 6.38L16.12 6.38Q15.48 6.94 15.32 7.88L15.32 7.88L19.98 7.88L19.98 7.88Q19.85 6.94 19.28 6.38L19.28 6.38L19.28 6.38Q18.70 5.82 17.78 5.82L17.78 5.82ZM23.80 1.40L23.80 1.40Q23.48 1.40 23.28 1.60L23.28 1.60L23.28 1.60Q23.09 1.79 23.09 2.11L23.09 2.11L23.09 8.50L23.09 8.50Q23.09 9.59 23.60 10.48L23.60 10.48L23.60 10.48Q24.11 11.37 24.98 11.88L24.98 11.88L24.98 11.88Q25.86 12.39 26.94 12.39L26.94 12.39L26.94 12.39Q28.01 12.39 28.90 11.88L28.90 11.88L28.90 11.88Q29.79 11.37 30.30 10.48L30.30 10.48L30.30 10.48Q30.80 9.59 30.80 8.50L30.80 8.50L30.80 8.50Q30.80 7.41 30.33 6.52L30.33 6.52L30.33 6.52Q29.86 5.63 29.04 5.12L29.04 5.12L29.04 5.12Q28.22 4.62 27.22 4.62L27.22 4.62L27.22 4.62Q26.40 4.62 25.70 4.96L25.70 4.96L25.70 4.96Q25.00 5.29 24.51 5.89L24.51 5.89L24.51 2.11L24.51 2.11Q24.51 1.79 24.31 1.60L24.31 1.60L24.31 1.60Q24.11 1.40 23.80 1.40L23.80 1.40ZM26.94 11.13L26.94 11.13Q26.24 11.13 25.67 10.79L25.67 10.79L25.67 10.79Q25.10 10.44 24.78 9.84L24.78 9.84L24.78 9.84Q24.46 9.24 24.46 8.50L24.46 8.50L24.46 8.50Q24.46 7.76 24.78 7.16L24.78 7.16L24.78 7.16Q25.10 6.57 25.67 6.22L25.67 6.22L25.67 6.22Q26.24 5.88 26.94 5.88L26.94 5.88L26.94 5.88Q27.64 5.88 28.20 6.22L28.20 6.22L28.20 6.22Q28.77 6.57 29.10 7.16L29.10 7.16L29.10 7.16Q29.43 7.76 29.43 8.50L29.43 8.50L29.43 8.50Q29.43 9.24 29.10 9.84L29.10 9.84L29.10 9.84Q28.77 10.44 28.20 10.79L28.20 10.79L28.20 10.79Q27.64 11.13 26.94 11.13L26.94 11.13ZM43.29 1.40L43.29 1.40Q43.60 1.40 43.81 1.61L43.81 1.61L43.81 1.61Q44.02 1.82 44.02 2.13L44.02 2.13L44.02 11.61L44.02 11.61Q44.02 11.91 43.80 12.12L43.80 12.12L43.80 12.12Q43.58 12.33 43.29 12.33L43.29 12.33L43.29 12.33Q42.98 12.33 42.77 12.12L42.77 12.12L42.77 12.12Q42.56 11.91 42.56 11.61L42.56 11.61L42.56 4.65L39.17 11.55L39.17 11.55Q38.93 11.91 38.54 11.91L38.54 11.91L38.54 11.91Q38.08 11.91 37.87 11.48L37.87 11.48L34.52 4.77L34.52 11.61L34.52 11.61Q34.52 11.91 34.31 12.12L34.31 12.12L34.31 12.12Q34.10 12.33 33.80 12.33L33.80 12.33L33.80 12.33Q33.49 12.33 33.28 12.12L33.28 12.12L33.28 12.12Q33.07 11.91 33.07 11.61L33.07 11.61L33.07 2.13L33.07 2.13Q33.07 1.82 33.28 1.61L33.28 1.61L33.28 1.61Q33.49 1.40 33.80 1.40L33.80 1.40L33.80 1.40Q34.22 1.40 34.44 1.79L34.44 1.79L38.60 10.12L42.64 1.79L42.64 1.79Q42.87 1.40 43.29 1.40L43.29 1.40ZM53.55 8.39L53.55 8.39Q53.55 8.65 53.37 8.83L53.37 8.83L53.37 8.83Q53.19 9.00 52.91 9.00L52.91 9.00L47.59 9.00L47.59 9.00Q47.74 9.98 48.47 10.58L48.47 10.58L48.47 10.58Q49.21 11.19 50.27 11.19L50.27 11.19L50.27 11.19Q50.69 11.19 51.15 11.03L51.15 11.03L51.15 11.03Q51.60 10.88 51.90 10.65L51.90 10.65L51.90 10.65Q52.09 10.50 52.36 10.50L52.36 10.50L52.36 10.50Q52.63 10.50 52.78 10.64L52.78 10.64L52.78 10.64Q53.03 10.85 53.03 11.12L53.03 11.12L53.03 11.12Q53.03 11.37 52.81 11.54L52.81 11.54L52.81 11.54Q52.33 11.91 51.63 12.15L51.63 12.15L51.63 12.15Q50.92 12.39 50.27 12.39L50.27 12.39L50.27 12.39Q49.13 12.39 48.22 11.89L48.22 11.89L48.22 11.89Q47.31 11.40 46.79 10.51L46.79 10.51L46.79 10.51Q46.28 9.63 46.28 8.51L46.28 8.51L46.28 8.51Q46.28 7.39 46.77 6.50L46.77 6.50L46.77 6.50Q47.25 5.61 48.11 5.12L48.11 5.12L48.11 5.12Q48.97 4.62 50.06 4.62L50.06 4.62L50.06 4.62Q51.14 4.62 51.93 5.10L51.93 5.10L51.93 5.10Q52.71 5.57 53.13 6.43L53.13 6.43L53.13 6.43Q53.55 7.28 53.55 8.39L53.55 8.39ZM50.06 5.82L50.06 5.82Q49.04 5.82 48.40 6.38L48.40 6.38L48.40 6.38Q47.77 6.94 47.60 7.88L47.60 7.88L52.26 7.88L52.26 7.88Q52.14 6.94 51.56 6.38L51.56 6.38L51.56 6.38Q50.99 5.82 50.06 5.82L50.06 5.82ZM62.24 8.39L62.24 8.39Q62.24 8.65 62.06 8.83L62.06 8.83L62.06 8.83Q61.88 9.00 61.60 9.00L61.60 9.00L56.28 9.00L56.28 9.00Q56.43 9.98 57.17 10.58L57.17 10.58L57.17 10.58Q57.90 11.19 58.97 11.19L58.97 11.19L58.97 11.19Q59.39 11.19 59.84 11.03L59.84 11.03L59.84 11.03Q60.30 10.88 60.59 10.65L60.59 10.65L60.59 10.65Q60.79 10.50 61.05 10.50L61.05 10.50L61.05 10.50Q61.32 10.50 61.47 10.64L61.47 10.64L61.47 10.64Q61.73 10.85 61.73 11.12L61.73 11.12L61.73 11.12Q61.73 11.37 61.50 11.54L61.50 11.54L61.50 11.54Q61.03 11.91 60.32 12.15L60.32 12.15L60.32 12.15Q59.61 12.39 58.97 12.39L58.97 12.39L58.97 12.39Q57.82 12.39 56.91 11.89L56.91 11.89L56.91 11.89Q56 11.40 55.49 10.51L55.49 10.51L55.49 10.51Q54.98 9.63 54.98 8.51L54.98 8.51L54.98 8.51Q54.98 7.39 55.46 6.50L55.46 6.50L55.46 6.50Q55.94 5.61 56.80 5.12L56.80 5.12L56.80 5.12Q57.67 4.62 58.76 4.62L58.76 4.62L58.76 4.62Q59.84 4.62 60.62 5.10L60.62 5.10L60.62 5.10Q61.40 5.57 61.82 6.43L61.82 6.43L61.82 6.43Q62.24 7.28 62.24 8.39L62.24 8.39ZM58.76 5.82L58.76 5.82Q57.74 5.82 57.10 6.38L57.10 6.38L57.10 6.38Q56.46 6.94 56.29 7.88L56.29 7.88L60.96 7.88L60.96 7.88Q60.83 6.94 60.26 6.38L60.26 6.38L60.26 6.38Q59.68 5.82 58.76 5.82L58.76 5.82ZM67.33 10.93L67.33 10.93Q67.58 10.93 67.75 11.13L67.75 11.13L67.75 11.13Q67.93 11.33 67.93 11.63L67.93 11.63L67.93 11.63Q67.93 11.94 67.70 12.14L67.70 12.14L67.70 12.14Q67.47 12.33 67.10 12.33L67.10 12.33L66.85 12.33L66.85 12.33Q66.16 12.33 65.60 11.98L65.60 11.98L65.60 11.98Q65.03 11.62 64.71 11.00L64.71 11.00L64.71 11.00Q64.39 10.39 64.39 9.62L64.39 9.62L64.39 6.16L63.74 6.16L63.74 6.16Q63.45 6.16 63.27 5.99L63.27 5.99L63.27 5.99Q63.08 5.82 63.08 5.57L63.08 5.57L63.08 5.57Q63.08 5.29 63.27 5.12L63.27 5.12L63.27 5.12Q63.45 4.96 63.74 4.96L63.74 4.96L64.39 4.96L64.39 2.94L64.39 2.94Q64.39 2.63 64.58 2.44L64.58 2.44L64.58 2.44Q64.78 2.24 65.09 2.24L65.09 2.24L65.09 2.24Q65.39 2.24 65.59 2.44L65.59 2.44L65.59 2.44Q65.79 2.63 65.79 2.94L65.79 2.94L65.79 4.96L66.98 4.96L66.98 4.96Q67.27 4.96 67.45 5.12L67.45 5.12L67.45 5.12Q67.63 5.29 67.63 5.57L67.63 5.57L67.63 5.57Q67.63 5.82 67.45 5.99L67.45 5.99L67.45 5.99Q67.27 6.16 66.98 6.16L66.98 6.16L65.79 6.16L65.79 9.62L65.79 9.62Q65.79 10.18 66.09 10.56L66.09 10.56L66.09 10.56Q66.40 10.93 66.85 10.93L66.85 10.93L67.33 10.93Z"></path></g><!----><g data-v-423bf9ae="" id="627af3ac-11e6-494a-87c0-ab0be9c9719b" transform="matrix(1.973616600036621,0,0,1.973616600036621,-17.5333194732666,-53.48161315917969)" stroke="none" fill="white"><path d="M41.3 61.3c0-3.5 2.9-6.4 6.4-6.4h.3v-6.8c0-1.1.9-2 2-2h2.3c1.3 0 2.4-1.1 2.4-2.4s-1.1-2.4-2.4-2.4H50c-1.1 0-2-.9-2-2v-12H26.9c-6 0-10.8 4.8-10.8 10.8v8.5L10.2 49c-1.1.5-1.5 1.9-.7 2.8l4.7 5.4v6.4c0 5.1 4.1 9.2 9.2 9.2H48v-5h-.3c-3.5-.1-6.4-2.9-6.4-6.5z"></path><path d="M89.8 49l-5.9-2.5V38c0-6-4.8-10.8-10.8-10.8H52v10h.3c3.5 0 6.4 2.9 6.4 6.4S55.8 50 52.3 50H52v6.8c0 1.1-.9 2-2 2h-2.3c-1.3 0-2.4 1.1-2.4 2.4s1.1 2.4 2.4 2.4H50c1.1 0 2 .9 2 2v7h24.5c5.1 0 9.2-4.1 9.2-9.2V57l4.7-5.4c.8-.7.5-2.1-.6-2.6z"></path></g><!----></svg>